<?xml version="1.0" standalone="no"?>
<!DOCTYPE svg PUBLIC "-//W3C//DTD SVG 20010904//EN"
 "http://www.w3.org/TR/2001/REC-SVG-20010904/DTD/svg10.dtd">
<svg version="1.0" xmlns="http://www.w3.org/2000/svg"
 width="200.000000pt" height="200.000000pt" viewBox="0 0 200.000000 200.000000"
 preserveAspectRatio="xMidYMid meet">
<metadata>
Created by potrace 1.16, written by Peter Selinger 2001-2019
</metadata>
<g transform="translate(0.000000,200.000000) scale(0.100000,-0.100000)"
fill="#000000" stroke="none">
<path d="M221 1686 c-8 -10 -11 -169 -11 -581 l1 -568 -28 -31 -28 -31 34 30
c22 20 35 26 38 18 3 -8 26 -13 61 -14 47 -1 52 -3 27 -9 -25 -7 -22 -8 19 -7
31 0 51 -4 54 -12 3 -8 8 -9 15 -2 22 17 112 18 101 0 -5 -8 -1 -8 14 0 29 15
105 15 96 -1 -5 -8 -2 -9 9 -5 9 3 19 2 22 -3 3 -5 -18 -11 -47 -13 l-53 -3
56 -2 c30 -1 60 3 65 8 7 7 92 11 225 11 347 0 376 -5 64 -11 l-290 -5 293 -3
c228 -2 292 1 292 11 0 9 2 9 8 0 5 -9 56 -12 182 -11 97 1 151 4 120 8 -54 5
-54 5 -17 11 23 3 49 0 64 -8 15 -8 54 -13 95 -12 59 1 66 3 51 15 -10 7 -31
13 -48 12 l-30 0 30 -8 c25 -6 20 -8 -25 -8 -38 0 -49 2 -35 8 16 6 12 9 -20
12 -25 3 -8 6 45 8 67 2 77 4 50 10 l-35 7 36 2 c19 0 40 6 47 13 9 9 17 7 34
-8 l22 -19 -17 27 c-15 25 -17 80 -19 600 l-3 573 -776 3 c-650 2 -778 0 -788
-12z m1523 -26 c3 -3 6 -228 6 -500 l2 -495 -751 -3 -751 -2 0 498 c0 274 3
502 7 506 9 8 1478 4 1487 -4z"/>
<path d="M1338 934 l-3 -209 -332 -3 -332 -2 -3 149 c-2 82 -6 152 -10 156
-10 10 -102 -42 -133 -76 -16 -16 -31 -46 -36 -71 -8 -43 -8 -43 54 -105 l61
-63 387 0 387 0 21 34 c12 19 44 51 71 72 53 40 90 101 90 147 0 85 -79 166
-171 175 l-49 5 -2 -209z"/>
<path d="M40 325 c0 -13 110 -15 963 -13 633 2 962 6 962 13 0 7 -329 11 -962
13 -853 2 -963 0 -963 -13z"/>
</g>
</svg>
