<?xml version="1.0" standalone="no"?>
<!DOCTYPE svg PUBLIC "-//W3C//DTD SVG 20010904//EN"
 "http://www.w3.org/TR/2001/REC-SVG-20010904/DTD/svg10.dtd">
<svg version="1.0" xmlns="http://www.w3.org/2000/svg"
 width="200.000000pt" height="200.000000pt" viewBox="0 0 200.000000 200.000000"
 preserveAspectRatio="xMidYMid meet">
<metadata>
Created by potrace 1.16, written by Peter Selinger 2001-2019
</metadata>
<g transform="translate(0.000000,200.000000) scale(0.100000,-0.100000)"
fill="#000000" stroke="none">
<path d="M15 1005 l0 -995 46 0 c40 0 51 5 92 43 26 24 47 48 47 55 0 9 82 12
348 12 191 0 550 3 797 6 l450 6 50 -61 c46 -56 53 -61 90 -61 72 0 69 -22 62
377 -4 197 -7 640 -7 986 l0 627 -987 0 -988 0 0 -995z m1255 259 c43 -10 0
-29 -61 -27 -30 1 -126 3 -213 3 -88 1 -165 4 -173 7 -22 9 -15 21 15 25 43 5
404 -1 432 -8z"/>
</g>
</svg>
